<?xml version="1.0" standalone="no"?><!-- Generator: Gravit.io --><svg xmlns="http://www.w3.org/2000/svg" xmlns:xlink="http://www.w3.org/1999/xlink" style="isolation:isolate" viewBox="19.92669762735709 0 360.14629864934295 399.9997565949066" width="360.14629864934295" height="399.9997565949066"><path d=" M 20.72555359592397 237.19707361682674 C 14.846658828140312 173.9173035469332 41.87324449670129 116.59807956104254 86.69981710105168 80.18159252727153 C 104.17319877196421 65.9742635051277 130.3016199621138 78.1403096217911 130.3016199621138 100.59442158207591 L 130.3016199621138 100.59442158207591 C 130.3016199621138 108.84120452021686 126.38235678359135 116.4347769286041 120.01355411849241 121.57880985041479 C 88.2511921092168 147.4622770919067 69.14478411391993 188.28793520151544 73.79890913841533 233.35946175452347 C 79.84110653863742 292.0667581161408 126.87226468090668 339.5878241557254 185.4979097263048 346.1199294532628 C 262.0051930237116 354.6933176562806 326.9996407342087 294.76125155137504 326.9996407342087 219.96864589457184 C 326.9996407342087 180.28610621203214 308.62809458488476 144.76778365667255 279.96848259193945 121.49715853419556 C 273.59967992684045 116.35312561238486 269.76206806453723 108.75955320399765 269.76206806453723 100.59442158207591 L 269.76206806453723 100.59442158207591 C 269.76206806453723 78.38526357044876 295.4822326735908 65.81096087268926 312.7923117120649 79.69168462995624 C 353.781272454112 112.7604676987393 380.07299627670005 163.30263243843493 380.07299627670005 219.96864589457184 C 380.07299627670005 323.58416617675874 292.05287739238366 407.11346266901825 186.80433078581234 399.51989026063103 C 99.76402769612648 393.39604154418976 28.8090339016265 324.0740740740741 20.72555359592397 237.19707361682674 Z  M 199.9501926971063 0 C 185.25295577764717 0 173.41351492586062 11.92109216800575 173.41351492586062 26.536677771245675 L 173.41351492586062 148.7686981514142 C 173.41351492586062 163.46593507087334 185.33460709386637 175.3053759226599 199.9501926971063 175.3053759226599 C 214.56577830034624 175.3053759226599 226.486870468352 163.38428375465415 226.486870468352 148.7686981514142 L 226.486870468352 26.536677771245675 C 226.48687046835195 11.92109216800575 214.64742961656543 0 199.9501926971063 0 Z " fill-rule="evenodd" fill="rgb(176,176,176)"/></svg>