<?xml version="1.0" standalone="no"?><!-- Generator: Gravit.io --><svg xmlns="http://www.w3.org/2000/svg" xmlns:xlink="http://www.w3.org/1999/xlink" style="isolation:isolate" viewBox="0 0 1000 1000" width="1000" height="1000"><radialGradient id="_rgradient_0" fx="50%" fy="50%" cx="50%" cy="50%" r="50%"><stop offset="0%" style="stop-color:rgb(255,255,255)"/><stop offset="100%" style="stop-color:rgb(232,232,232)"/></radialGradient><path d=" M 154 486.50000000000006 C 154 300.22868074999997 305.22868074999985 149.00000000000006 491.49999999999994 149 C 677.77131925 149 829 300.22868074999985 829 486.49999999999994 C 829 672.7713192499999 677.77131925 824 491.5000000000001 824 C 305.2286807500001 824 154 672.77131925 154 486.50000000000006 Z " fill="url(#_rgradient_0)"/><g style="opacity:0.14;"><path d=" M 312.22570664389536 523.6971953193733 C 306.34681187611176 460.41742524947983 333.3733975446727 403.0982012635892 378.1999701490231 366.6817142298182 C 395.67335181993565 352.47438520767435 421.8017730100852 364.6404313243378 421.8017730100852 387.09454328462255 L 421.8017730100852 387.09454328462255 C 421.8017730100852 395.34132622276354 417.88250983156274 402.93489863115076 411.51370716646386 408.0789315529614 C 379.7513451571882 433.9623987944534 360.64493716189133 474.7880569040621 365.2990621863868 519.8595834570701 C 371.3412595866088 578.5668798186875 418.3724177288781 626.0879458582721 476.99806277427626 632.6200511558095 C 553.5053460716831 641.1934393588273 618.4997937821802 581.2613732539216 618.4997937821802 506.4687675971185 C 618.4997937821802 466.78622791457883 600.1282476328562 431.2679053592192 571.4686356399109 407.9972802367422 C 565.0998329748119 402.85324731493154 561.2622211125087 395.2596749065443 561.2622211125087 387.09454328462255 L 561.2622211125087 387.09454328462255 C 561.2622211125087 364.88538527299545 586.9823857215622 352.3110825752359 604.2924647600363 366.1918063325029 C 645.2814255020835 399.260589401286 671.5731493246715 449.8027541409816 671.5731493246715 506.4687675971185 C 671.5731493246715 610.0842878793054 583.5530304403551 693.6135843715649 478.30448383378376 686.0200119631777 C 391.26418074409787 679.8961632467365 320.3091869495979 610.5741957766207 312.22570664389536 523.6971953193733 Z  M 491.4503457450777 286.50012170254666 C 476.7531088256186 286.50012170254666 464.91366797383205 298.42121387055244 464.91366797383205 313.0367994737923 L 464.91366797383205 435.26881985396085 C 464.91366797383205 449.96605677342 476.8347601418378 461.80549762520656 491.4503457450777 461.80549762520656 C 506.0659313483177 461.80549762520656 517.9870235163235 449.88440545720084 517.9870235163235 435.26881985396085 L 517.9870235163235 313.0367994737923 C 517.9870235163233 298.42121387055244 506.14758266453686 286.50012170254666 491.4503457450777 286.50012170254666 Z " fill-rule="evenodd" fill="rgb(0,0,0)"/></g></svg>